# 
# Wavefront OBJ file
# Converted by the DEEP Exploration Deep Exploration 5 5.0.4.1779 Release
# Right Hemisphere, LTD
# http://www.righthemisphere.com/
# 
mtllib barrier.mtl
# object Regroup00
g Regroup00
v -160.00000 -50.00000 -35.30010
v -160.00000 -50.00000 -51.30010
v -120.00000 -50.00000 -35.30010
v -120.00000 -50.00000 -51.30010
v -120.00000 50.00000 -35.30010
v -120.00000 50.00000 -51.30010
v -160.00000 50.00000 -35.30010
v -160.00000 50.00000 -51.30010
v -20.00000 -50.00000 -35.30010
v -20.00000 -50.00000 -51.30010
v 20.00000 -50.00000 -35.30010
v 20.00000 -50.00000 -51.30010
v 20.00000 50.00000 -35.30010
v 20.00000 50.00000 -51.30010
v -20.00000 50.00000 -35.30010
v -20.00000 50.00000 -51.30010
v 120.00000 -50.00000 -35.30010
v 120.00000 -50.00000 -51.30010
v 160.00000 -50.00000 -35.30010
v 160.00000 -50.00000 -51.30010
v 160.00000 50.00000 -35.30010
v 160.00000 50.00000 -51.30010
v 120.00000 50.00000 -35.30010
v 120.00000 50.00000 -51.30010
v -160.00000 19.00000 116.69990
v -106.00000 19.00000 116.69990
v -51.00000 19.00000 116.69990
v 0.00000 19.00000 116.69990
v 55.00000 19.00000 116.69990
v 106.00000 19.00000 116.69990
v 160.00000 19.00000 116.69990
v -160.00000 -19.00000 116.69990
v -106.00000 -19.00000 116.69990
v -51.00000 -19.00000 116.69990
v 0.00000 -19.00000 116.69990
v 55.00000 -19.00000 116.69990
v 106.00000 -19.00000 116.69990
v 160.00000 -19.00000 116.69990
v -160.00000 -16.00000 126.69990
v -106.00000 -16.00000 126.69990
v -51.00000 -16.00000 126.69990
v 0.00000 -16.00000 126.69990
v 55.00000 -16.00000 126.69990
v 106.00000 -16.00000 126.69990
v 160.00000 -16.00000 126.69990
v -160.00000 -9.00000 133.69990
v -106.00000 -9.00000 133.69990
v -51.00000 -9.00000 133.69990
v 0.00000 -9.00000 133.69990
v 55.00000 -9.00000 133.69990
v 106.00000 -9.00000 133.69990
v 160.00000 -9.00000 133.69990
v -160.00000 0.00000 135.69990
v -106.00000 0.00000 135.69990
v -51.00000 0.00000 135.69990
v 0.00000 0.00000 135.69990
v 55.00000 0.00000 135.69990
v 106.00000 0.00000 135.69990
v 160.00000 0.00000 135.69990
v -160.00000 9.00000 133.69990
v -106.00000 9.00000 133.69990
v -51.00000 9.00000 133.69990
v 0.00000 9.00000 133.69990
v 55.00000 9.00000 133.69990
v 106.00000 9.00000 133.69990
v 160.00000 9.00000 133.69990
v -160.00000 16.00000 126.69990
v -106.00000 16.00000 126.69990
v -51.00000 16.00000 126.69990
v 0.00000 16.00000 126.69990
v 55.00000 16.00000 126.69990
v 106.00000 16.00000 126.69990
v 160.00000 16.00000 126.69990
# 73 verticies
vt 0.63854 0.55371
vt 0.63854 0.53022
vt 0.68316 0.55371
vt 0.68316 0.53022
vt 0.00152 0.04181
vt 0.00152 0.00161
vt 0.19239 0.04181
vt 0.19239 0.00161
vt 0.95085 0.23361
vt 0.95085 0.21012
vt 0.99546 0.23361
vt 0.99546 0.21012
vt 0.23700 0.47149
vt 0.23700 0.32465
vt 0.28162 0.47149
vt 0.28162 0.32465
vt 0.79469 0.55371
vt 0.79469 0.53022
vt 0.83931 0.55371
vt 0.83931 0.53022
vt 0.79469 0.23361
vt 0.79469 0.21012
vt 0.83931 0.23361
vt 0.83931 0.21012
vt 0.00152 0.57042
vt 0.00152 0.53022
vt 0.19239 0.57042
vt 0.19239 0.53022
vt 0.39316 0.47149
vt 0.39316 0.32465
vt 0.43777 0.47149
vt 0.43777 0.32465
vt 0.95085 0.55371
vt 0.95085 0.53022
vt 0.99546 0.55371
vt 0.99546 0.53022
vt 0.63854 0.23361
vt 0.63854 0.21012
vt 0.68316 0.23361
vt 0.68316 0.21012
vt 0.54931 0.47149
vt 0.54931 0.32465
vt 0.59392 0.47149
vt 0.59392 0.32465
vt 0.63854 0.77691
vt 0.69877 0.77691
vt 0.69877 0.79159
vt 0.63854 0.79159
vt 0.76012 0.77691
vt 0.76012 0.79159
vt 0.81700 0.77691
vt 0.81700 0.79159
vt 0.87835 0.77691
vt 0.87835 0.79159
vt 0.93523 0.77691
vt 0.93523 0.79159
vt 0.99546 0.77691
vt 0.99546 0.79159
vt 0.23700 0.42156
vt 0.29724 0.42156
vt 0.23700 0.41128
vt 0.29724 0.41128
vt 0.35858 0.42156
vt 0.35858 0.41128
vt 0.41546 0.42156
vt 0.41546 0.41128
vt 0.47681 0.42156
vt 0.47681 0.41128
vt 0.53369 0.42156
vt 0.53369 0.41128
vt 0.59392 0.42156
vt 0.59392 0.41128
vt 0.23700 0.53022
vt 0.29724 0.53022
vt 0.29724 0.54344
vt 0.23700 0.54344
vt 0.35858 0.53022
vt 0.35858 0.54344
vt 0.41546 0.53022
vt 0.41546 0.54344
vt 0.47681 0.53022
vt 0.47681 0.54344
vt 0.53369 0.53022
vt 0.53369 0.54344
vt 0.59392 0.53022
vt 0.59392 0.54344
vt 0.23700 0.55665
vt 0.29724 0.55665
vt 0.35858 0.55665
vt 0.41546 0.55665
vt 0.47681 0.55665
vt 0.53369 0.55665
vt 0.59392 0.55665
vt 0.23700 0.38485
vt 0.29724 0.38485
vt 0.29724 0.37457
vt 0.23700 0.37457
vt 0.35858 0.38485
vt 0.35858 0.37457
vt 0.41546 0.38485
vt 0.41546 0.37457
vt 0.47681 0.38485
vt 0.47681 0.37457
vt 0.53369 0.38485
vt 0.53369 0.37457
vt 0.59392 0.38485
vt 0.59392 0.37457
vt 0.99546 0.47149
vt 0.93523 0.47149
vt 0.99546 0.45680
vt 0.93523 0.45680
vt 0.87388 0.47149
vt 0.87388 0.45680
vt 0.81700 0.47149
vt 0.81700 0.45680
vt 0.75565 0.47149
vt 0.75565 0.45680
vt 0.69877 0.47149
vt 0.69877 0.45680
vt 0.63854 0.47149
vt 0.63854 0.45680
vt 0.06069 0.95235
vt 0.06642 0.97748
vt 0.07978 0.99507
vt 0.09696 1.00010
vt 0.11413 0.99507
vt 0.12749 0.97748
vt 0.13322 0.95235
vt 0.06069 0.42375
vt 0.06642 0.44887
vt 0.07978 0.46646
vt 0.09696 0.47149
vt 0.11413 0.46646
vt 0.12749 0.44887
vt 0.13322 0.42375
# 135 texture verticies
vn 0.00000 -0.99101 0.13382
vn 0.00000 -1.00000 0.00000
vn 0.00000 -0.99272 0.12048
vn 1.00000 0.00000 0.00000
vn 0.00000 0.98862 0.15045
vn 0.00000 1.00000 -0.00000
vn 0.00000 0.99494 0.10042
vn 0.00000 -0.00000 -1.00000
vn 0.00000 -0.98862 0.15045
vn 0.00000 0.99272 0.12048
vn -1.00000 0.00000 0.00000
vn 0.00000 -0.99494 0.10042
vn 0.00000 0.99101 0.13382
vn 0.00000 -0.96604 0.25841
vn 0.00000 -0.97198 0.23507
vn 0.00000 -0.85852 0.51279
vn 0.00000 -0.96822 0.25009
vn 0.00000 -0.85852 0.51279
vn 0.00000 -0.48121 0.87661
vn 0.00000 -0.48121 0.87661
vn 0.00000 0.00000 1.00000
vn 0.00000 0.00000 1.00000
vn 0.00000 0.48121 0.87661
vn 0.00000 0.48121 0.87661
vn 0.00000 0.85852 0.51279
vn 0.00000 0.85852 0.51279
vn 0.00000 0.96604 0.25841
vn 0.00000 0.97198 0.23507
vn 0.00000 0.96822 0.25009
vn 0.00000 0.96982 0.24384
# 30 normals
usemtl Explorer_Default
f  1/1/1 2/2/2 3/3/3
f  2/2/2 4/4/2 3/3/3
f  3/5/4 4/6/4 5/7/4
f  4/6/4 6/8/4 5/7/4
f  5/9/5 6/10/6 7/11/7
f  6/10/6 8/12/6 7/11/7
f  2/13/8 8/14/8 4/15/8
f  8/14/8 6/16/8 4/15/8
f  9/17/9 10/18/2 11/19/3
f  10/18/2 12/20/2 11/19/3
f  11/5/4 12/6/4 13/7/4
f  12/6/4 14/8/4 13/7/4
f  13/21/5 14/22/6 15/23/10
f  14/22/6 16/24/6 15/23/10
f  15/25/11 16/26/11 9/27/11
f  16/26/11 10/28/11 9/27/11
f  10/29/8 16/30/8 12/31/8
f  16/30/8 14/32/8 12/31/8
f  17/33/9 18/34/2 19/35/12
f  18/34/2 20/36/2 19/35/12
f  21/37/7 22/38/6 23/39/13
f  22/38/6 24/40/6 23/39/13
f  23/25/11 24/26/11 17/27/11
f  24/26/11 18/28/11 17/27/11
f  18/41/8 24/42/8 20/43/8
f  24/42/8 22/44/8 20/43/8
f  32/45/14 33/46/15 40/47/16
f  32/45/14 40/47/16 39/48/16
f  33/46/15 34/49/17 40/47/16
f  34/49/17 41/50/18 40/47/16
f  34/49/17 35/51/15 42/52/16
f  34/49/17 42/52/16 41/50/18
f  35/51/15 36/53/17 42/52/16
f  36/53/17 43/54/18 42/52/16
f  36/53/17 37/55/15 44/56/16
f  36/53/17 44/56/16 43/54/18
f  37/55/15 38/57/14 44/56/16
f  38/57/14 45/58/16 44/56/16
f  39/59/16 40/60/16 46/61/19
f  40/60/16 47/62/19 46/61/19
f  40/60/16 41/63/18 48/64/20
f  40/60/16 48/64/20 47/62/19
f  41/63/18 42/65/16 48/64/20
f  42/65/16 49/66/19 48/64/20
f  42/65/16 43/67/18 50/68/20
f  42/65/16 50/68/20 49/66/19
f  43/67/18 44/69/16 50/68/20
f  44/69/16 51/70/19 50/68/20
f  44/69/16 45/71/16 52/72/19
f  44/69/16 52/72/19 51/70/19
f  46/73/19 47/74/19 54/75/21
f  46/73/19 54/75/21 53/76/22
f  47/74/19 48/77/20 54/75/21
f  48/77/20 55/78/22 54/75/21
f  48/77/20 49/79/19 56/80/21
f  48/77/20 56/80/21 55/78/22
f  49/79/19 50/81/20 56/80/21
f  50/81/20 57/82/22 56/80/21
f  50/81/20 51/83/19 58/84/21
f  50/81/20 58/84/21 57/82/22
f  51/83/19 52/85/19 58/84/21
f  52/85/19 59/86/22 58/84/21
f  53/76/22 54/75/21 60/87/23
f  54/75/21 61/88/23 60/87/23
f  54/75/21 55/78/22 62/89/24
f  54/75/21 62/89/24 61/88/23
f  55/78/22 56/80/21 62/89/24
f  56/80/21 63/90/23 62/89/24
f  56/80/21 57/82/22 64/91/24
f  56/80/21 64/91/24 63/90/23
f  57/82/22 58/84/21 64/91/24
f  58/84/21 65/92/23 64/91/24
f  58/84/21 59/86/22 66/93/23
f  58/84/21 66/93/23 65/92/23
f  60/94/23 61/95/23 68/96/25
f  60/94/23 68/96/25 67/97/26
f  61/95/23 62/98/24 68/96/25
f  62/98/24 69/99/26 68/96/25
f  62/98/24 63/100/23 70/101/25
f  62/98/24 70/101/25 69/99/26
f  63/100/23 64/102/24 70/101/25
f  64/102/24 71/103/26 70/101/25
f  64/102/24 65/104/23 72/105/25
f  64/102/24 72/105/25 71/103/26
f  65/104/23 66/106/23 72/105/25
f  66/106/23 73/107/26 72/105/25
f  67/108/26 68/109/25 25/110/27
f  68/109/25 26/111/28 25/110/27
f  68/109/25 69/112/26 27/113/29
f  68/109/25 27/113/29 26/111/28
f  69/112/26 70/114/25 27/113/29
f  70/114/25 28/115/28 27/113/29
f  70/114/25 71/116/26 29/117/29
f  70/114/25 29/117/29 28/115/28
f  71/116/26 72/118/25 29/117/29
f  72/118/25 30/119/30 29/117/29
f  72/118/25 73/120/26 31/121/30
f  72/118/25 31/121/30 30/119/30
f  9/29/8 3/15/8 5/16/8
f  5/16/8 15/30/8 9/29/8
f  13/32/8 23/42/8 17/41/8
f  17/41/8 11/31/8 13/32/8
f  32/45/14 1/1/1 33/46/15
f  33/46/15 1/1/1 3/3/3
f  3/3/3 9/17/9 34/49/17
f  34/49/17 33/46/15 3/3/3
f  34/49/17 9/17/9 35/51/15
f  35/51/15 9/17/9 11/19/3
f  11/19/3 36/53/17 35/51/15
f  11/19/3 17/33/9 36/53/17
f  36/53/17 17/33/9 37/55/15
f  37/55/15 17/33/9 19/35/12
f  19/35/12 38/57/14 37/55/15
f  31/121/30 21/37/7 23/39/13
f  23/39/13 30/119/30 31/121/30
f  23/39/13 13/21/5 29/117/29
f  29/117/29 30/119/30 23/39/13
f  13/21/5 28/115/28 29/117/29
f  28/115/28 13/21/5 15/23/10
f  15/23/10 27/113/29 28/115/28
f  15/23/10 5/9/5 27/113/29
f  27/113/29 5/9/5 26/111/28
f  26/111/28 5/9/5 7/11/7
f  7/11/7 25/110/27 26/111/28
f  25/122/11 7/25/11 8/26/11
f  67/123/11 25/122/11 8/26/11
f  60/124/11 67/123/11 8/26/11
f  53/125/11 60/124/11 8/26/11
f  53/125/11 2/28/11 46/126/11
f  46/126/11 2/28/11 39/127/11
f  39/127/11 2/28/11 32/128/11
f  32/128/11 2/28/11 1/27/11
f  53/125/11 8/26/11 2/28/11
f  19/5/4 20/6/4 38/129/4
f  45/130/4 38/129/4 20/6/4
f  52/131/4 45/130/4 20/6/4
f  59/132/4 52/131/4 20/6/4
f  59/132/4 22/8/4 66/133/4
f  66/133/4 22/8/4 73/134/4
f  73/134/4 22/8/4 31/135/4
f  31/135/4 22/8/4 21/7/4
f  59/132/4 20/6/4 22/8/4
